<svg id="Capa_1" enable-background="new 0 0 512.02 512.02" height="400" viewBox="0 0 512.02 512.02" width="400" xmlns="http://www.w3.org/2000/svg"><g><path d="m412.333 241.088c-4.765-23.824-17.924-89.619-26.016-130.078h13.703c8.284 0 15-6.716 15-15s-6.716-15-15-15c-15.017 0-60.621 0-80 0-8.284 0-15 6.716-15 15s6.716 15 15 15h35.703l10 50h-162.389l-7.428-26h20.114c8.284 0 15-6.716 15-15s-6.716-15-15-15c-15.022 0-55.83 0-72 0-8.284 0-15 6.716-15 15s6.716 15 15 15h20.686l11.104 38.863-44.389 73.982c-34.066-13.728-74.746-6.869-102.984 20.889-37.91 37.267-37.919 97.255 0 134.531 18.193 17.885 42.195 27.735 67.583 27.735 47.28 0 86.598-34.72 93.812-80 54.307 0 51.104.16 53.492-.378 2.116-.477 4.168-1.441 5.952-2.843 1.641-1.286-5.952 6.973 125.897-139.527l7.74 38.703c-36.108 13.469-61.894 48.3-61.894 89.045 0 52.383 42.617 95 95 95 52.596 0 96-42.567 96-95 .001-53.489-45.321-97.004-99.686-94.922zm-316.313 159.922c-36.393 0-66-29.159-66-65 0-44.236 44.045-75.198 85.676-61.948l-32.538 54.23c-5.991 9.985 1.218 22.718 12.862 22.718h63.234c-6.792 28.63-32.556 50-63.234 50zm63.234-80h-36.741l18.886-31.476c8.662 8.459 14.969 19.31 17.855 31.476zm30.578 0c-3.666-23.014-15.626-43.296-32.71-57.681l30.289-50.482 32.449 108.163zm56.888-14.867-34.54-115.133h138.159zm169.3 94.867c-35.841 0-65-29.159-65-65 0-26.168 15.552-48.758 37.892-59.055l12.399 61.996c1.427 7.131 7.689 12.062 14.693 12.062 9.511 0 16.574-8.695 14.725-17.944l-12.4-62.001c35.325 1.205 63.691 29.864 63.691 64.942 0 35.841-29.608 65-66 65z"/></g></svg>